<mxfile>
    <diagram id="-IIofgYd6Ng-EtnS4YGi" name="Page-1">
        <mxGraphModel dx="1296" dy="830" grid="1" gridSize="10" guides="1" tooltips="1" connect="1" arrows="1" fold="1" page="1" pageScale="1" pageWidth="850" pageHeight="1100" math="0" shadow="0">
            <root>
                <mxCell id="0"/>
                <mxCell id="1" parent="0"/>
                <mxCell id="105" value="" style="rounded=0;whiteSpace=wrap;html=1;" parent="1" vertex="1">
                    <mxGeometry x="140" y="80" width="1090" height="640" as="geometry"/>
                </mxCell>
                <mxCell id="101" value="" style="rounded=1;whiteSpace=wrap;html=1;strokeColor=#000033;glass=0;sketch=1;" parent="1" vertex="1">
                    <mxGeometry x="730" y="270" width="420" height="300" as="geometry"/>
                </mxCell>
                <mxCell id="100" value="" style="rounded=1;whiteSpace=wrap;html=1;strokeColor=#000066;sketch=1;shadow=0;" parent="1" vertex="1">
                    <mxGeometry x="190" y="180" width="510" height="490" as="geometry"/>
                </mxCell>
                <mxCell id="93" value="" style="rounded=1;whiteSpace=wrap;html=1;dashed=1;strokeColor=#FF3333;" parent="1" vertex="1">
                    <mxGeometry x="750" y="310" width="361" height="220" as="geometry"/>
                </mxCell>
                <mxCell id="85" value="" style="rounded=1;whiteSpace=wrap;html=1;dashed=1;strokeColor=#3333FF;" parent="1" vertex="1">
                    <mxGeometry x="329" y="310" width="361" height="320" as="geometry"/>
                </mxCell>
                <mxCell id="75" value="" style="edgeStyle=orthogonalEdgeStyle;rounded=0;orthogonalLoop=1;jettySize=auto;html=1;" parent="1" source="70" target="74" edge="1">
                    <mxGeometry relative="1" as="geometry"/>
                </mxCell>
                <mxCell id="70" value="Application" style="rounded=1;whiteSpace=wrap;html=1;" parent="1" vertex="1">
                    <mxGeometry x="360" y="340" width="120" height="60" as="geometry"/>
                </mxCell>
                <mxCell id="71" value="Application&lt;br&gt;(App-of-Apps)" style="rounded=1;whiteSpace=wrap;html=1;" parent="1" vertex="1">
                    <mxGeometry x="209" y="210" width="120" height="60" as="geometry"/>
                </mxCell>
                <mxCell id="72" value="" style="endArrow=none;html=1;entryX=0.575;entryY=1.033;entryDx=0;entryDy=0;entryPerimeter=0;" parent="1" edge="1">
                    <mxGeometry width="50" height="50" relative="1" as="geometry">
                        <mxPoint x="270" y="573" as="sourcePoint"/>
                        <mxPoint x="270" y="269" as="targetPoint"/>
                    </mxGeometry>
                </mxCell>
                <mxCell id="74" value="K8s Rsources" style="whiteSpace=wrap;html=1;rounded=1;dashed=1;" parent="1" vertex="1">
                    <mxGeometry x="560" y="340" width="120" height="60" as="geometry"/>
                </mxCell>
                <mxCell id="76" value="" style="endArrow=classic;html=1;entryX=0;entryY=0.5;entryDx=0;entryDy=0;" parent="1" target="70" edge="1">
                    <mxGeometry width="50" height="50" relative="1" as="geometry">
                        <mxPoint x="270" y="370" as="sourcePoint"/>
                        <mxPoint x="450" y="360" as="targetPoint"/>
                    </mxGeometry>
                </mxCell>
                <mxCell id="77" value="" style="edgeStyle=orthogonalEdgeStyle;rounded=0;orthogonalLoop=1;jettySize=auto;html=1;" parent="1" source="78" target="79" edge="1">
                    <mxGeometry relative="1" as="geometry"/>
                </mxCell>
                <mxCell id="78" value="Application" style="rounded=1;whiteSpace=wrap;html=1;" parent="1" vertex="1">
                    <mxGeometry x="360" y="430" width="120" height="60" as="geometry"/>
                </mxCell>
                <mxCell id="79" value="&lt;span&gt;K8s Rsources&lt;/span&gt;" style="whiteSpace=wrap;html=1;rounded=1;dashed=1;" parent="1" vertex="1">
                    <mxGeometry x="560" y="430" width="120" height="60" as="geometry"/>
                </mxCell>
                <mxCell id="80" value="" style="endArrow=classic;html=1;entryX=0;entryY=0.5;entryDx=0;entryDy=0;" parent="1" target="78" edge="1">
                    <mxGeometry width="50" height="50" relative="1" as="geometry">
                        <mxPoint x="270" y="460" as="sourcePoint"/>
                        <mxPoint x="450" y="560" as="targetPoint"/>
                    </mxGeometry>
                </mxCell>
                <mxCell id="81" value="Application&lt;br&gt;(App-of-Apps Non-admin)" style="rounded=0;whiteSpace=wrap;html=1;" parent="1" vertex="1">
                    <mxGeometry x="360" y="550" width="250" height="60" as="geometry"/>
                </mxCell>
                <mxCell id="82" value="" style="endArrow=classic;html=1;entryX=0.008;entryY=0.383;entryDx=0;entryDy=0;entryPerimeter=0;" parent="1" target="81" edge="1">
                    <mxGeometry width="50" height="50" relative="1" as="geometry">
                        <mxPoint x="270" y="573" as="sourcePoint"/>
                        <mxPoint x="350" y="570" as="targetPoint"/>
                    </mxGeometry>
                </mxCell>
                <mxCell id="87" value="" style="edgeStyle=orthogonalEdgeStyle;rounded=0;orthogonalLoop=1;jettySize=auto;html=1;" parent="1" source="88" target="89" edge="1">
                    <mxGeometry relative="1" as="geometry"/>
                </mxCell>
                <mxCell id="88" value="Application" style="rounded=1;whiteSpace=wrap;html=1;" parent="1" vertex="1">
                    <mxGeometry x="772" y="340" width="120" height="60" as="geometry"/>
                </mxCell>
                <mxCell id="89" value="K8s Rsources" style="whiteSpace=wrap;html=1;rounded=1;dashed=1;" parent="1" vertex="1">
                    <mxGeometry x="972" y="340" width="120" height="60" as="geometry"/>
                </mxCell>
                <mxCell id="90" value="" style="edgeStyle=orthogonalEdgeStyle;rounded=0;orthogonalLoop=1;jettySize=auto;html=1;" parent="1" source="91" target="92" edge="1">
                    <mxGeometry relative="1" as="geometry"/>
                </mxCell>
                <mxCell id="91" value="Application" style="rounded=1;whiteSpace=wrap;html=1;" parent="1" vertex="1">
                    <mxGeometry x="772" y="430" width="120" height="60" as="geometry"/>
                </mxCell>
                <mxCell id="92" value="K8s Rsources" style="whiteSpace=wrap;html=1;rounded=1;dashed=1;" parent="1" vertex="1">
                    <mxGeometry x="972" y="430" width="120" height="60" as="geometry"/>
                </mxCell>
                <mxCell id="94" value="" style="endArrow=none;html=1;" parent="1" edge="1">
                    <mxGeometry width="50" height="50" relative="1" as="geometry">
                        <mxPoint x="610" y="580" as="sourcePoint"/>
                        <mxPoint x="720" y="580" as="targetPoint"/>
                    </mxGeometry>
                </mxCell>
                <mxCell id="95" value="" style="endArrow=none;html=1;" parent="1" edge="1">
                    <mxGeometry width="50" height="50" relative="1" as="geometry">
                        <mxPoint x="720" y="370" as="sourcePoint"/>
                        <mxPoint x="720" y="580" as="targetPoint"/>
                    </mxGeometry>
                </mxCell>
                <mxCell id="96" value="" style="endArrow=classic;html=1;endSize=6;" parent="1" edge="1">
                    <mxGeometry width="50" height="50" relative="1" as="geometry">
                        <mxPoint x="721" y="370" as="sourcePoint"/>
                        <mxPoint x="772" y="370" as="targetPoint"/>
                    </mxGeometry>
                </mxCell>
                <mxCell id="97" value="" style="endArrow=classic;html=1;endSize=6;" parent="1" edge="1">
                    <mxGeometry width="50" height="50" relative="1" as="geometry">
                        <mxPoint x="721" y="461" as="sourcePoint"/>
                        <mxPoint x="772" y="461" as="targetPoint"/>
                    </mxGeometry>
                </mxCell>
                <mxCell id="98" value="Project: team" style="text;html=1;align=center;verticalAlign=middle;resizable=0;points=[];autosize=1;" parent="1" vertex="1">
                    <mxGeometry x="895" y="310" width="90" height="20" as="geometry"/>
                </mxCell>
                <mxCell id="99" value="Project: default" style="text;html=1;align=center;verticalAlign=middle;resizable=0;points=[];autosize=1;" parent="1" vertex="1">
                    <mxGeometry x="410" y="310" width="100" height="20" as="geometry"/>
                </mxCell>
                <mxCell id="102" value="Repos : not admins" style="text;html=1;align=center;verticalAlign=middle;resizable=0;points=[];autosize=1;" parent="1" vertex="1">
                    <mxGeometry x="760" y="280" width="120" height="20" as="geometry"/>
                </mxCell>
                <mxCell id="103" value="Repos: admins" style="text;html=1;align=center;verticalAlign=middle;resizable=0;points=[];autosize=1;" parent="1" vertex="1">
                    <mxGeometry x="340" y="200" width="100" height="20" as="geometry"/>
                </mxCell>
                <mxCell id="111" value="1" style="shape=ellipse;strokeWidth=6;strokeColor=#10739E;fontSize=15;html=0;fontStyle=1;fontColor=#10739E;" vertex="1" parent="1">
                    <mxGeometry x="340" y="230" width="50" height="50" as="geometry"/>
                </mxCell>
                <mxCell id="112" value="2" style="shape=ellipse;strokeWidth=6;strokeColor=#F2931E;fontSize=15;html=0;fontStyle=1;fontColor=#F2931E;" vertex="1" parent="1">
                    <mxGeometry x="500" y="390" width="50" height="50" as="geometry"/>
                </mxCell>
                <mxCell id="113" value="3" style="shape=ellipse;strokeWidth=6;strokeColor=#AE4132;fontSize=15;html=0;fontStyle=1;fontColor=#AE4132;" vertex="1" parent="1">
                    <mxGeometry x="905.5" y="390" width="50" height="50" as="geometry"/>
                </mxCell>
            </root>
        </mxGraphModel>
    </diagram>
</mxfile>